<svg width="32" height="32" viewBox="0 0 32 32" fill="none" xmlns="http://www.w3.org/2000/svg">
  <rect width="32" height="32" rx="8" fill="#25D366"/>
  <path d="M16 7C11.03 7 7 11.03 7 16C7 17.44 7.39 18.8 8.09 19.97L7 25L12.13 23.01C13.23 23.65 14.57 24 16 24C20.97 24 25 19.97 25 16C25 11.03 20.97 7 16 7ZM16 22C14.77 22 13.57 21.7 12.5 21.13L12.21 20.97L9 22L9.68 18.97L9.5 18.68C8.84 17.68 8.5 16.56 8.5 15.5C8.5 11.91 11.91 8.5 16 8.5C20.09 8.5 23.5 11.91 23.5 15.5C23.5 19.09 20.09 22 16 22ZM19.5 17.5C19.36 17.5 19.23 17.5 19.09 17.5C18.82 17.5 18.57 17.41 18.36 17.23C17.91 16.86 17.41 16.5 16.91 16.09C16.41 15.68 15.91 15.27 15.5 14.82C15.09 14.36 14.77 13.91 14.5 13.5C14.32 13.23 14.23 12.98 14.23 12.71C14.23 12.5 14.23 12.36 14.23 12.23C14.23 12.09 14.32 12 14.5 12C14.68 12 14.77 12.09 14.91 12.23C15.09 12.41 15.27 12.59 15.5 12.82C15.73 13.05 15.91 13.23 16.09 13.41C16.27 13.59 16.41 13.77 16.59 13.91C16.77 14.05 16.91 14.18 17.09 14.32C17.27 14.45 17.41 14.59 17.59 14.68C17.77 14.77 17.91 14.86 18.09 14.91C18.27 14.95 18.41 15 18.59 15C18.77 15 18.91 15 19.09 15C19.23 15 19.32 15.09 19.32 15.23C19.32 15.36 19.32 15.5 19.32 15.68C19.32 15.86 19.32 16.05 19.32 16.23C19.32 16.41 19.32 16.59 19.32 16.77C19.32 16.95 19.32 17.09 19.32 17.23C19.32 17.36 19.23 17.5 19.09 17.5H19.5Z" fill="white"/>
</svg>
